<svg xmlns="http://www.w3.org/2000/svg" width="14.907" height="16.875" viewBox="0 0 14.907 16.875">
  <path id="book-ico" d="M3.574,14.063H16.313V.563H3.539A2.14,2.14,0,0,0,1.406,2.695V15.126h0v.016a2.249,2.249,0,0,0,2.133,2.3H16.313V16.313H3.539a1.143,1.143,0,0,1-1.008-1.171A1.076,1.076,0,0,1,3.574,14.063ZM12.656,1.7V7.775l-1.7-1.494L9.281,7.766V1.7Zm-4.5-.011V9.282H9.268l1.69-1.5,1.709,1.5h1.114V1.688h1.406v11.25H4.784l0-11.25Zm-4.617,0h.117l0,11.25H3.574a2.1,2.1,0,0,0-1.043.277V2.7A1.013,1.013,0,0,1,3.539,1.688Z" transform="translate(-1.406 -0.563)" fill="#001e42"/>
</svg>
