<svg xmlns="http://www.w3.org/2000/svg" width="18.001" height="13.5" viewBox="0 0 18.001 13.5">
  <path id="teacher-ico" d="M18,12.938a.569.569,0,0,1-.562.562.549.549,0,0,1-.4-.167.533.533,0,0,1-.167-.4v-7.4l-6.2,3.111A3.691,3.691,0,0,1,9,9a3.691,3.691,0,0,1-1.67-.352L.686,5.326Q0,4.975,0,4.491t.686-.817L7.33.352A3.691,3.691,0,0,1,9,0a3.691,3.691,0,0,1,1.67.352l6.645,3.322a1.067,1.067,0,0,1,.668.738.1.1,0,0,1,.018.07v8.455ZM11.232,9.773l3.393-1.7v2.479q0,.756-1.644,1.292A12.939,12.939,0,0,1,9,12.375a12.939,12.939,0,0,1-3.981-.536Q3.375,11.3,3.375,10.547V8.068l3.393,1.7A5.27,5.27,0,0,0,9,10.125,5.27,5.27,0,0,0,11.232,9.773Z" fill="#001e42"/>
</svg>
