<svg xmlns="http://www.w3.org/2000/svg" width="12.041" height="11.175" viewBox="0 0 12.041 11.175">
  <g id="users-solid" transform="translate(-1.981 -2.668)">
    <path id="Path_61" data-name="Path 61" d="M5.333,7.173H4.946a3.853,3.853,0,0,0-2.858,1.12l-.107.124V12.1H3.794V10.008l.244-.276L4.149,9.6A4.889,4.889,0,0,1,6.242,8.332a2.929,2.929,0,0,1-.909-1.159Z" fill="#002a5c"/>
    <path id="Path_62" data-name="Path 62" d="M13.929,8.28a3.853,3.853,0,0,0-2.858-1.12,4.653,4.653,0,0,0-.484.027A2.929,2.929,0,0,1,9.7,8.276,4.849,4.849,0,0,1,11.92,9.609l.111.124.24.276V12.1h1.751V8.4Z" fill="#002a5c"/>
    <path id="Path_63" data-name="Path 63" d="M4.933,6.307h.138a2.867,2.867,0,0,1,1.382-2.8,1.818,1.818,0,1,0-1.52,2.813Z" fill="#002a5c"/>
    <path id="Path_64" data-name="Path 64" d="M10.858,5.973a2.907,2.907,0,0,1,0,.307,1.818,1.818,0,0,0,.258.022H11.2A1.818,1.818,0,1,0,9.542,3.556a2.9,2.9,0,0,1,1.316,2.418Z" fill="#002a5c"/>
    <path id="Path_65" data-name="Path 65" d="M9.929,5.978A1.987,1.987,0,1,1,7.943,4.036,1.987,1.987,0,0,1,9.929,5.978Z" fill="#002a5c"/>
    <path id="Path_66" data-name="Path 66" d="M8.049,9.022a4.307,4.307,0,0,0-3.16,1.2l-.111.124v2.813a.7.7,0,0,0,.711.684H10.6a.7.7,0,0,0,.711-.684v-2.8l-.107-.133a4.258,4.258,0,0,0-3.151-1.2Z" fill="#002a5c"/>
  </g>
</svg>
