<svg xmlns="http://www.w3.org/2000/svg" width="15.75" height="15.75" viewBox="0 0 15.75 15.75">
  <g id="user-avatar-filled-alt" transform="translate(-1.125 -1.125)">
    <path id="Path_7" data-name="Path 7" d="M9,1.125A7.875,7.875,0,1,0,16.875,9,7.875,7.875,0,0,0,9,1.125Zm4.5,12.892v-.342a2.93,2.93,0,0,0-2.812-2.987H7.313a2.925,2.925,0,0,0-2.807,2.987c0,.006-.006.012-.006.019v.329a6.753,6.753,0,1,1,9-.006Z" fill="#e9ecef"/>
    <path id="Path_8" data-name="Path 8" d="M9,3.938a2.813,2.813,0,1,0,2.813,2.813A2.813,2.813,0,0,0,9,3.938Z" fill="#e9ecef"/>
  </g>
</svg>
